<svg xmlns="http://www.w3.org/2000/svg" viewBox="0 0 258 72">
  <g fill="none" stroke="#6f97f2" stroke-linecap="round" stroke-linejoin="round">
    <path d="M12 22 C18 18.5 25 18.5 31 22.5 C37 18.5 44 18.5 50 22 L50 50 C44 46.5 37 46.5 31 50.5 C25 46.5 18 46.5 12 50 Z" stroke-width="3"/>
    <path d="M13.5 23.5 C19 20.5 25.5 20.5 30.5 24" stroke-width="1.4" opacity="0.55"/>
    <path d="M31 22.5 L31 50.5" stroke-width="2.6"/>
    <path d="M32.5 24 C38 20.8 44 20.8 48.5 23.5" stroke-width="1.4" opacity="0.55"/>
    <path d="M16 28 C20 26 25 26 29 28" stroke-width="1.5" opacity="0.7"/>
    <path d="M16 33 C20 31 25 31 29 33" stroke-width="1.5" opacity="0.7"/>
    <path d="M16 38 C20 36 25 36 29 38" stroke-width="1.5" opacity="0.7"/>
    <path d="M33 28 C37 26 42 26 46 28" stroke-width="1.5" opacity="0.7"/>
    <path d="M33 33 C37 31 42 31 46 33" stroke-width="1.5" opacity="0.7"/>
    <path d="M33 38 C37 36 42 36 46 38" stroke-width="1.5" opacity="0.7"/>
    <path d="M10 24 C9 32 9 42 11 51" stroke-width="2.2"/>
    <path d="M52 24 C53 32 53 42 51 51" stroke-width="2.2"/>
  </g>
  <text x="64" y="33" font-family="'Plus Jakarta Sans','Segoe UI',sans-serif" font-size="21" font-weight="400" letter-spacing="2.5" fill="#6f97f2">AI STUDY</text>
  <text x="64" y="56" font-family="'Plus Jakarta Sans','Segoe UI',sans-serif" font-size="21" font-weight="400" letter-spacing="2.5" fill="#6f97f2">COMPANION</text>
</svg>
